<svg width="35" height="47" viewBox="0 0 35 47" fill="none" xmlns="http://www.w3.org/2000/svg">
<path d="M1.25084 0.269572C1.6277 0.06998 2.05169 -0.0217518 2.47671 0.00435012C2.90173 0.0304521 3.31151 0.173389 3.6615 0.417619L33.9989 21.5672C34.308 21.7844 34.5604 22.0736 34.7347 22.4101C34.909 22.7466 35 23.1205 35 23.5001C35 23.8796 34.909 24.2535 34.7347 24.59C34.5604 24.9265 34.308 25.2157 33.9989 25.4329L3.6615 46.5825C3.31139 46.8264 2.90168 46.9693 2.47674 46.9956C2.05179 47.0219 1.6278 46.9306 1.25067 46.7316C0.873546 46.5327 0.557659 46.2336 0.337208 45.8668C0.116757 45.5001 0.000146782 45.0796 3.10038e-06 44.6508V2.35163C-6.7098e-05 1.92268 0.116461 1.50189 0.336954 1.13487C0.557447 0.76785 0.873491 0.468606 1.25084 0.269572ZM4.6673 40.1648L28.5709 23.5012L4.6673 6.8377V40.1648Z" fill="#989898"/>
</svg>
