<svg width="156" height="48" viewBox="0 0 156 48" fill="none" xmlns="http://www.w3.org/2000/svg">
<path d="M0 12V7.2H4.88889V4.8C4.88889 3.52696 5.40397 2.30606 6.32081 1.40589C7.23766 0.505713 8.48116 0 9.77778 0H24.4444V16.8L30.5556 13.2L36.6667 16.8V0H39.1111C41.6778 0 44 2.28 44 4.8V43.2C44 45.72 41.6778 48 39.1111 48H9.77778C7.21111 48 4.88889 45.72 4.88889 43.2V40.8H0V36H4.88889V26.4H0V21.6H4.88889V12H0ZM9.77778 21.6H4.88889V26.4H9.77778V21.6ZM9.77778 12V7.2H4.88889V12H9.77778ZM9.77778 40.8V36H4.88889V40.8H9.77778Z" fill="#5200FF"/>
<path d="M55.2642 19V4.45455H61.0028C62.1013 4.45455 63.0388 4.65104 63.8153 5.04403C64.5966 5.43229 65.1908 5.9839 65.598 6.69886C66.0099 7.40909 66.2159 8.24479 66.2159 9.20597C66.2159 10.1719 66.0076 11.0028 65.5909 11.6989C65.1742 12.3902 64.5705 12.9205 63.7798 13.2898C62.9938 13.6591 62.0421 13.8438 60.9247 13.8438H57.0824V11.3722H60.4276C61.0147 11.3722 61.5024 11.2917 61.8906 11.1307C62.2789 10.9697 62.5677 10.7282 62.7571 10.4062C62.9512 10.0843 63.0483 9.68419 63.0483 9.20597C63.0483 8.72301 62.9512 8.31581 62.7571 7.98438C62.5677 7.65294 62.2765 7.40199 61.8835 7.23153C61.4953 7.05634 61.0052 6.96875 60.4134 6.96875H58.3395V19H55.2642ZM63.1193 12.3807L66.7344 19H63.3395L59.8026 12.3807H63.1193ZM73.1282 19.2131C72.006 19.2131 71.0401 18.9858 70.2305 18.5312C69.4255 18.072 68.8053 17.4233 68.3697 16.5852C67.9341 15.7424 67.7163 14.7457 67.7163 13.5952C67.7163 12.473 67.9341 11.4882 68.3697 10.6406C68.8053 9.79309 69.4184 9.13258 70.2092 8.65909C71.0046 8.18561 71.9374 7.94886 73.0075 7.94886C73.7272 7.94886 74.3971 8.06487 75.0174 8.29688C75.6424 8.52415 76.1869 8.86742 76.6509 9.3267C77.1197 9.78598 77.4843 10.3636 77.7447 11.0597C78.0051 11.7509 78.1353 12.5606 78.1353 13.4886V14.3196H68.9237V12.4446H75.2873C75.2873 12.009 75.1926 11.6231 75.0032 11.2869C74.8138 10.9508 74.551 10.688 74.2148 10.4986C73.8834 10.3045 73.4975 10.2074 73.0572 10.2074C72.5979 10.2074 72.1907 10.3139 71.8356 10.527C71.4852 10.7353 71.2106 11.017 71.0117 11.3722C70.8129 11.7225 70.7111 12.1132 70.7063 12.544V14.3267C70.7063 14.8665 70.8058 15.3329 71.0046 15.7259C71.2082 16.1188 71.4947 16.4219 71.864 16.6349C72.2333 16.848 72.6713 16.9545 73.1779 16.9545C73.5141 16.9545 73.8219 16.9072 74.1012 16.8125C74.3806 16.7178 74.6197 16.5758 74.8185 16.3864C75.0174 16.197 75.1689 15.965 75.2731 15.6903L78.0714 15.875C77.9293 16.5473 77.6381 17.1345 77.1978 17.6364C76.7622 18.1335 76.1987 18.5218 75.5075 18.8011C74.8209 19.0758 74.0278 19.2131 73.1282 19.2131ZM80.1097 23.0909V8.09091H83.0927V9.9233H83.2276C83.3602 9.62973 83.552 9.33144 83.8029 9.02841C84.0586 8.72064 84.39 8.46496 84.7972 8.26136C85.2092 8.05303 85.7205 7.94886 86.3313 7.94886C87.1268 7.94886 87.8607 8.1572 88.533 8.57386C89.2054 8.9858 89.7428 9.60843 90.1452 10.4418C90.5477 11.2704 90.7489 12.3097 90.7489 13.5597C90.7489 14.7765 90.5524 15.804 90.1594 16.642C89.7712 17.4754 89.2409 18.1075 88.5685 18.5384C87.9009 18.9645 87.1528 19.1776 86.3242 19.1776C85.7371 19.1776 85.2376 19.0805 84.8256 18.8864C84.4184 18.6922 84.0846 18.4484 83.8242 18.1548C83.5638 17.8565 83.3649 17.5559 83.2276 17.2528H83.1353V23.0909H80.1097ZM83.0714 13.5455C83.0714 14.1941 83.1613 14.7599 83.3413 15.2429C83.5212 15.7259 83.7816 16.1023 84.1225 16.3722C84.4634 16.6373 84.8777 16.7699 85.3654 16.7699C85.8578 16.7699 86.2745 16.6349 86.6154 16.3651C86.9563 16.0904 87.2144 15.7116 87.3896 15.2287C87.5695 14.741 87.6594 14.1799 87.6594 13.5455C87.6594 12.9157 87.5719 12.3617 87.3967 11.8835C87.2215 11.4053 86.9634 11.0312 86.6225 10.7614C86.2816 10.4915 85.8626 10.3565 85.3654 10.3565C84.873 10.3565 84.4563 10.4867 84.1154 10.7472C83.7792 11.0076 83.5212 11.3769 83.3413 11.8551C83.1613 12.3333 83.0714 12.8968 83.0714 13.5455ZM97.695 19.2131C96.5917 19.2131 95.6377 18.9787 94.8327 18.5099C94.0326 18.0365 93.4147 17.3783 92.979 16.5355C92.5434 15.688 92.3256 14.7055 92.3256 13.5881C92.3256 12.4612 92.5434 11.4763 92.979 10.6335C93.4147 9.78598 94.0326 9.12784 94.8327 8.65909C95.6377 8.18561 96.5917 7.94886 97.695 7.94886C98.7982 7.94886 99.7499 8.18561 100.55 8.65909C101.355 9.12784 101.975 9.78598 102.411 10.6335C102.846 11.4763 103.064 12.4612 103.064 13.5881C103.064 14.7055 102.846 15.688 102.411 16.5355C101.975 17.3783 101.355 18.0365 100.55 18.5099C99.7499 18.9787 98.7982 19.2131 97.695 19.2131ZM97.7092 16.8693C98.2111 16.8693 98.6301 16.7273 98.9663 16.4432C99.3024 16.1544 99.5558 15.7614 99.7262 15.2642C99.9014 14.767 99.989 14.2012 99.989 13.5668C99.989 12.9323 99.9014 12.3665 99.7262 11.8693C99.5558 11.3722 99.3024 10.9792 98.9663 10.6903C98.6301 10.4015 98.2111 10.2571 97.7092 10.2571C97.2025 10.2571 96.7764 10.4015 96.4308 10.6903C96.0898 10.9792 95.8318 11.3722 95.6566 11.8693C95.4862 12.3665 95.4009 12.9323 95.4009 13.5668C95.4009 14.2012 95.4862 14.767 95.6566 15.2642C95.8318 15.7614 96.0898 16.1544 96.4308 16.4432C96.7764 16.7273 97.2025 16.8693 97.7092 16.8693ZM105.032 19V8.09091H107.965V9.99432H108.078C108.277 9.31723 108.611 8.80587 109.08 8.46023C109.549 8.10985 110.088 7.93466 110.699 7.93466C110.851 7.93466 111.014 7.94413 111.189 7.96307C111.364 7.98201 111.518 8.00805 111.651 8.04119V10.7259C111.509 10.6832 111.312 10.6454 111.061 10.6122C110.81 10.5791 110.581 10.5625 110.373 10.5625C109.927 10.5625 109.53 10.6596 109.179 10.8537C108.834 11.0431 108.559 11.3082 108.355 11.6491C108.157 11.9901 108.057 12.383 108.057 12.8281V19H105.032ZM119.565 8.09091V10.3636H112.995V8.09091H119.565ZM114.487 5.47727H117.512V15.6477C117.512 15.9271 117.555 16.1449 117.64 16.3011C117.725 16.4527 117.844 16.5592 117.995 16.6207C118.151 16.6823 118.331 16.7131 118.535 16.7131C118.677 16.7131 118.819 16.7012 118.961 16.6776C119.103 16.6491 119.212 16.6278 119.288 16.6136L119.763 18.8651C119.612 18.9124 119.399 18.9669 119.124 19.0284C118.85 19.0947 118.516 19.1349 118.123 19.1491C117.394 19.1776 116.754 19.0805 116.205 18.858C115.661 18.6354 115.237 18.2898 114.934 17.821C114.631 17.3523 114.482 16.7604 114.487 16.0455V5.47727ZM121.536 19V8.09091H124.561V19H121.536ZM123.055 6.68466C122.606 6.68466 122.22 6.53551 121.898 6.23722C121.58 5.93419 121.422 5.57197 121.422 5.15057C121.422 4.7339 121.58 4.37642 121.898 4.07812C122.22 3.77509 122.606 3.62358 123.055 3.62358C123.505 3.62358 123.889 3.77509 124.206 4.07812C124.528 4.37642 124.689 4.7339 124.689 5.15057C124.689 5.57197 124.528 5.93419 124.206 6.23722C123.889 6.53551 123.505 6.68466 123.055 6.68466ZM130.01 12.6932V19H126.985V8.09091H129.868V10.0156H129.996C130.238 9.38116 130.642 8.87926 131.211 8.50994C131.779 8.13589 132.468 7.94886 133.277 7.94886C134.035 7.94886 134.695 8.11458 135.259 8.44602C135.822 8.77746 136.26 9.25095 136.573 9.86648C136.885 10.4773 137.042 11.2064 137.042 12.054V19H134.016V12.5938C134.021 11.9261 133.85 11.4053 133.505 11.0312C133.159 10.6525 132.683 10.4631 132.077 10.4631C131.67 10.4631 131.31 10.5507 130.998 10.7259C130.69 10.901 130.448 11.1567 130.273 11.4929C130.103 11.8243 130.015 12.2244 130.01 12.6932ZM144.341 23.3182C143.361 23.3182 142.52 23.1832 141.82 22.9134C141.124 22.6482 140.57 22.286 140.158 21.8267C139.746 21.3674 139.478 20.8513 139.355 20.2784L142.153 19.902C142.239 20.1198 142.374 20.3234 142.558 20.5128C142.743 20.7022 142.987 20.8537 143.29 20.9673C143.598 21.0857 143.972 21.1449 144.412 21.1449C145.07 21.1449 145.612 20.9839 146.038 20.6619C146.469 20.3447 146.685 19.812 146.685 19.0639V17.0682H146.557C146.424 17.3712 146.225 17.6577 145.96 17.9276C145.695 18.1974 145.354 18.4176 144.938 18.5881C144.521 18.7585 144.024 18.8438 143.446 18.8438C142.627 18.8438 141.881 18.6544 141.209 18.2756C140.541 17.892 140.009 17.3073 139.611 16.5213C139.218 15.7306 139.021 14.7315 139.021 13.5241C139.021 12.2884 139.223 11.2562 139.625 10.4276C140.027 9.59896 140.563 8.97869 141.23 8.56676C141.902 8.15483 142.639 7.94886 143.439 7.94886C144.05 7.94886 144.561 8.05303 144.973 8.26136C145.385 8.46496 145.716 8.72064 145.967 9.02841C146.223 9.33144 146.42 9.62973 146.557 9.9233H146.67V8.09091H149.675V19.1065C149.675 20.0346 149.447 20.8111 148.993 21.4361C148.538 22.0611 147.909 22.5298 147.104 22.8423C146.304 23.1596 145.383 23.3182 144.341 23.3182ZM144.405 16.571C144.893 16.571 145.304 16.4503 145.641 16.2088C145.982 15.9626 146.242 15.6122 146.422 15.1577C146.607 14.6984 146.699 14.1491 146.699 13.5099C146.699 12.8707 146.609 12.3168 146.429 11.848C146.249 11.3745 145.989 11.0076 145.648 10.7472C145.307 10.4867 144.893 10.3565 144.405 10.3565C143.908 10.3565 143.489 10.4915 143.148 10.7614C142.807 11.0265 142.549 11.3958 142.374 11.8693C142.198 12.3428 142.111 12.8897 142.111 13.5099C142.111 14.1397 142.198 14.6842 142.374 15.1435C142.554 15.598 142.812 15.9508 143.148 16.2017C143.489 16.4479 143.908 16.571 144.405 16.571ZM61.0881 28.4545H64.1278V38.5966C64.1278 39.5341 63.9171 40.3485 63.4957 41.0398C63.0791 41.7311 62.4991 42.2637 61.7557 42.6378C61.0123 43.0118 60.1482 43.1989 59.1634 43.1989C58.2874 43.1989 57.492 43.045 56.777 42.7372C56.0668 42.4247 55.5033 41.9512 55.0866 41.3168C54.67 40.6776 54.464 39.875 54.4688 38.9091H57.5298C57.5393 39.2926 57.6174 39.6217 57.7642 39.8963C57.9157 40.1662 58.1217 40.3745 58.3821 40.5213C58.6473 40.6634 58.9598 40.7344 59.3196 40.7344C59.6984 40.7344 60.018 40.6539 60.2784 40.4929C60.5436 40.3272 60.7448 40.0857 60.8821 39.7685C61.0194 39.4512 61.0881 39.0606 61.0881 38.5966V28.4545ZM71.5426 43.2131C70.4394 43.2131 69.4853 42.9787 68.6804 42.5099C67.8802 42.0365 67.2623 41.3783 66.8267 40.5355C66.3911 39.688 66.1733 38.7055 66.1733 37.5881C66.1733 36.4612 66.3911 35.4763 66.8267 34.6335C67.2623 33.786 67.8802 33.1278 68.6804 32.6591C69.4853 32.1856 70.4394 31.9489 71.5426 31.9489C72.6458 31.9489 73.5975 32.1856 74.3977 32.6591C75.2027 33.1278 75.8229 33.786 76.2585 34.6335C76.6941 35.4763 76.9119 36.4612 76.9119 37.5881C76.9119 38.7055 76.6941 39.688 76.2585 40.5355C75.8229 41.3783 75.2027 42.0365 74.3977 42.5099C73.5975 42.9787 72.6458 43.2131 71.5426 43.2131ZM71.5568 40.8693C72.0587 40.8693 72.4777 40.7273 72.8139 40.4432C73.1501 40.1544 73.4034 39.7614 73.5739 39.2642C73.7491 38.767 73.8366 38.2012 73.8366 37.5668C73.8366 36.9323 73.7491 36.3665 73.5739 35.8693C73.4034 35.3722 73.1501 34.9792 72.8139 34.6903C72.4777 34.4015 72.0587 34.2571 71.5568 34.2571C71.0502 34.2571 70.6241 34.4015 70.2784 34.6903C69.9375 34.9792 69.6795 35.3722 69.5043 35.8693C69.3338 36.3665 69.2486 36.9323 69.2486 37.5668C69.2486 38.2012 69.3338 38.767 69.5043 39.2642C69.6795 39.7614 69.9375 40.1544 70.2784 40.4432C70.6241 40.7273 71.0502 40.8693 71.5568 40.8693ZM85.875 38.3551V32.0909H88.9006V43H85.9957V41.0185H85.8821C85.6359 41.6577 85.2263 42.1714 84.6534 42.5597C84.0852 42.9479 83.3916 43.142 82.5724 43.142C81.8433 43.142 81.2017 42.9763 80.6477 42.6449C80.0938 42.3134 79.6605 41.8423 79.348 41.2315C79.0402 40.6207 78.884 39.8892 78.8793 39.0369V32.0909H81.9048V38.4972C81.9096 39.1411 82.0824 39.6501 82.4233 40.0241C82.7642 40.3982 83.2211 40.5852 83.794 40.5852C84.1586 40.5852 84.4995 40.5024 84.8168 40.3366C85.134 40.1662 85.3897 39.9152 85.5838 39.5838C85.7827 39.2524 85.8797 38.8428 85.875 38.3551ZM91.3207 43V32.0909H94.2539V33.9943H94.3675C94.5664 33.3172 94.9002 32.8059 95.369 32.4602C95.8377 32.1098 96.3775 31.9347 96.9883 31.9347C97.1398 31.9347 97.3031 31.9441 97.4783 31.9631C97.6535 31.982 97.8074 32.008 97.94 32.0412V34.7259C97.7979 34.6832 97.6014 34.6454 97.3505 34.6122C97.0996 34.5791 96.8699 34.5625 96.6616 34.5625C96.2165 34.5625 95.8188 34.6596 95.4684 34.8537C95.1228 35.0431 94.8481 35.3082 94.6445 35.6491C94.4457 35.9901 94.3462 36.383 94.3462 36.8281V43H91.3207ZM102.53 36.6932V43H99.5043V32.0909H102.388V34.0156H102.516C102.757 33.3812 103.162 32.8793 103.73 32.5099C104.298 32.1359 104.987 31.9489 105.797 31.9489C106.554 31.9489 107.215 32.1146 107.778 32.446C108.342 32.7775 108.78 33.2509 109.092 33.8665C109.405 34.4773 109.561 35.2064 109.561 36.054V43H106.536V36.5938C106.54 35.9261 106.37 35.4053 106.024 35.0312C105.679 34.6525 105.203 34.4631 104.597 34.4631C104.189 34.4631 103.83 34.5507 103.517 34.7259C103.209 34.901 102.968 35.1567 102.793 35.4929C102.622 35.8243 102.535 36.2244 102.53 36.6932ZM115.056 43.206C114.36 43.206 113.74 43.0852 113.196 42.8438C112.651 42.5975 112.22 42.2353 111.903 41.7571C111.591 41.2741 111.434 40.6728 111.434 39.9531C111.434 39.3471 111.546 38.8381 111.768 38.4261C111.991 38.0142 112.294 37.6828 112.677 37.4318C113.061 37.1809 113.496 36.9915 113.984 36.8636C114.476 36.7358 114.993 36.6458 115.532 36.5938C116.167 36.5275 116.678 36.4659 117.066 36.4091C117.455 36.3475 117.736 36.2576 117.912 36.1392C118.087 36.0208 118.174 35.8456 118.174 35.6136V35.571C118.174 35.1212 118.032 34.7732 117.748 34.527C117.469 34.2808 117.071 34.1577 116.555 34.1577C116.011 34.1577 115.577 34.2784 115.255 34.5199C114.933 34.7566 114.72 35.0549 114.616 35.4148L111.818 35.1875C111.96 34.5246 112.239 33.9517 112.656 33.4688C113.073 32.9811 113.61 32.607 114.268 32.3466C114.931 32.0814 115.698 31.9489 116.569 31.9489C117.175 31.9489 117.755 32.0199 118.309 32.1619C118.868 32.304 119.363 32.5241 119.794 32.8224C120.229 33.1207 120.573 33.5043 120.824 33.973C121.074 34.437 121.2 34.9934 121.2 35.642V43H118.331V41.4872H118.245C118.07 41.8281 117.836 42.1288 117.542 42.3892C117.249 42.6449 116.896 42.8461 116.484 42.9929C116.072 43.1349 115.596 43.206 115.056 43.206ZM115.923 41.1179C116.368 41.1179 116.761 41.0303 117.102 40.8551C117.443 40.6752 117.71 40.4337 117.904 40.1307C118.099 39.8277 118.196 39.4844 118.196 39.1009V37.9432C118.101 38.0047 117.971 38.0616 117.805 38.1136C117.644 38.161 117.462 38.206 117.258 38.2486C117.055 38.2865 116.851 38.322 116.647 38.3551C116.444 38.3835 116.259 38.4096 116.093 38.4332C115.738 38.4853 115.428 38.5682 115.163 38.6818C114.898 38.7955 114.692 38.9493 114.545 39.1435C114.398 39.3329 114.325 39.5696 114.325 39.8537C114.325 40.2656 114.474 40.5805 114.772 40.7983C115.075 41.0114 115.459 41.1179 115.923 41.1179ZM126.573 28.4545V43H123.547V28.4545H126.573Z" fill="#8B55FF"/>
</svg>
