<svg width="35" height="47" viewBox="0 0 35 47" fill="none" xmlns="http://www.w3.org/2000/svg">
<path d="M33.7492 0.269572C33.3723 0.06998 32.9483 -0.0217518 32.5233 0.00435012C32.0983 0.0304521 31.6885 0.173389 31.3385 0.417619L1.00108 21.5672C0.69201 21.7844 0.439598 22.0736 0.265307 22.4101C0.0910156 22.7466 0 23.1205 0 23.5001C0 23.8796 0.0910156 24.2535 0.265307 24.59C0.439598 24.9265 0.69201 25.2157 1.00108 25.4329L31.3385 46.5825C31.6886 46.8264 32.0983 46.9693 32.5233 46.9956C32.9482 47.0219 33.3722 46.9306 33.7493 46.7316C34.1265 46.5327 34.4423 46.2336 34.6628 45.8668C34.8832 45.5001 34.9999 45.0796 35 44.6508V2.35163C35.0001 1.92268 34.8835 1.50189 34.663 1.13487C34.4426 0.76785 34.1265 0.468606 33.7492 0.269572ZM30.3327 40.1648L6.42915 23.5012L30.3327 6.8377V40.1648Z" fill="#989898"/>
</svg>
