<svg width="96" height="41" viewBox="0 0 96 41" fill="none" xmlns="http://www.w3.org/2000/svg">
<path d="M1.2642 16V1.45455H7.00284C8.10133 1.45455 9.03883 1.65104 9.81534 2.04403C10.5966 2.43229 11.1908 2.9839 11.598 3.69886C12.0099 4.40909 12.2159 5.24479 12.2159 6.20597C12.2159 7.17187 12.0076 8.00284 11.5909 8.69886C11.1742 9.39015 10.5705 9.92045 9.77983 10.2898C8.99384 10.6591 8.04214 10.8438 6.92472 10.8438H3.08239V8.37216H6.42756C7.01468 8.37216 7.50237 8.29167 7.89062 8.13068C8.27888 7.9697 8.56771 7.72822 8.7571 7.40625C8.95123 7.08428 9.0483 6.68419 9.0483 6.20597C9.0483 5.72301 8.95123 5.31581 8.7571 4.98438C8.56771 4.65294 8.27652 4.40199 7.88352 4.23153C7.49527 4.05634 7.00521 3.96875 6.41335 3.96875H4.33949V16H1.2642ZM9.11932 9.38068L12.7344 16H9.33949L5.80256 9.38068H9.11932ZM19.1282 16.2131C18.006 16.2131 17.0401 15.9858 16.2305 15.5312C15.4255 15.072 14.8053 14.4233 14.3697 13.5852C13.9341 12.7424 13.7163 11.7457 13.7163 10.5952C13.7163 9.47301 13.9341 8.48816 14.3697 7.64062C14.8053 6.79309 15.4184 6.13258 16.2092 5.65909C17.0046 5.18561 17.9374 4.94886 19.0075 4.94886C19.7272 4.94886 20.3971 5.06487 21.0174 5.29688C21.6424 5.52415 22.1869 5.86742 22.6509 6.3267C23.1197 6.78598 23.4843 7.36364 23.7447 8.05966C24.0051 8.75095 24.1353 9.56061 24.1353 10.4886V11.3196H14.9237V9.4446H21.2873C21.2873 9.009 21.1926 8.62311 21.0032 8.28693C20.8138 7.95076 20.551 7.68797 20.2148 7.49858C19.8834 7.30445 19.4975 7.20739 19.0572 7.20739C18.5979 7.20739 18.1907 7.31392 17.8356 7.52699C17.4852 7.73532 17.2106 8.01705 17.0117 8.37216C16.8129 8.72254 16.7111 9.11316 16.7063 9.54403V11.3267C16.7063 11.8665 16.8058 12.3329 17.0046 12.7259C17.2082 13.1188 17.4947 13.4219 17.864 13.6349C18.2333 13.848 18.6713 13.9545 19.1779 13.9545C19.5141 13.9545 19.8219 13.9072 20.1012 13.8125C20.3806 13.7178 20.6197 13.5758 20.8185 13.3864C21.0174 13.197 21.1689 12.965 21.2731 12.6903L24.0714 12.875C23.9293 13.5473 23.6381 14.1345 23.1978 14.6364C22.7622 15.1335 22.1987 15.5218 21.5075 15.8011C20.8209 16.0758 20.0278 16.2131 19.1282 16.2131ZM26.1097 20.0909V5.09091H29.0927V6.9233H29.2276C29.3602 6.62973 29.552 6.33144 29.8029 6.02841C30.0586 5.72064 30.39 5.46496 30.7972 5.26136C31.2092 5.05303 31.7205 4.94886 32.3313 4.94886C33.1268 4.94886 33.8607 5.1572 34.533 5.57386C35.2054 5.9858 35.7428 6.60843 36.1452 7.44176C36.5477 8.27036 36.7489 9.30966 36.7489 10.5597C36.7489 11.7765 36.5524 12.804 36.1594 13.642C35.7712 14.4754 35.2409 15.1075 34.5685 15.5384C33.9009 15.9645 33.1528 16.1776 32.3242 16.1776C31.7371 16.1776 31.2376 16.0805 30.8256 15.8864C30.4184 15.6922 30.0846 15.4484 29.8242 15.1548C29.5638 14.8565 29.3649 14.5559 29.2276 14.2528H29.1353V20.0909H26.1097ZM29.0714 10.5455C29.0714 11.1941 29.1613 11.7599 29.3413 12.2429C29.5212 12.7259 29.7816 13.1023 30.1225 13.3722C30.4634 13.6373 30.8777 13.7699 31.3654 13.7699C31.8578 13.7699 32.2745 13.6349 32.6154 13.3651C32.9563 13.0904 33.2144 12.7116 33.3896 12.2287C33.5695 11.741 33.6594 11.1799 33.6594 10.5455C33.6594 9.91572 33.5719 9.36174 33.3967 8.88352C33.2215 8.4053 32.9634 8.03125 32.6225 7.76136C32.2816 7.49148 31.8626 7.35653 31.3654 7.35653C30.873 7.35653 30.4563 7.48674 30.1154 7.74716C29.7792 8.00758 29.5212 8.37689 29.3413 8.85511C29.1613 9.33333 29.0714 9.89678 29.0714 10.5455ZM43.695 16.2131C42.5917 16.2131 41.6377 15.9787 40.8327 15.5099C40.0326 15.0365 39.4147 14.3783 38.979 13.5355C38.5434 12.688 38.3256 11.7055 38.3256 10.5881C38.3256 9.46117 38.5434 8.47633 38.979 7.63352C39.4147 6.78598 40.0326 6.12784 40.8327 5.65909C41.6377 5.18561 42.5917 4.94886 43.695 4.94886C44.7982 4.94886 45.7499 5.18561 46.5501 5.65909C47.355 6.12784 47.9753 6.78598 48.4109 7.63352C48.8465 8.47633 49.0643 9.46117 49.0643 10.5881C49.0643 11.7055 48.8465 12.688 48.4109 13.5355C47.9753 14.3783 47.355 15.0365 46.5501 15.5099C45.7499 15.9787 44.7982 16.2131 43.695 16.2131ZM43.7092 13.8693C44.2111 13.8693 44.6301 13.7273 44.9663 13.4432C45.3024 13.1544 45.5558 12.7614 45.7262 12.2642C45.9014 11.767 45.989 11.2012 45.989 10.5668C45.989 9.93229 45.9014 9.36648 45.7262 8.86932C45.5558 8.37216 45.3024 7.97917 44.9663 7.69034C44.6301 7.40151 44.2111 7.2571 43.7092 7.2571C43.2025 7.2571 42.7764 7.40151 42.4308 7.69034C42.0898 7.97917 41.8318 8.37216 41.6566 8.86932C41.4862 9.36648 41.4009 9.93229 41.4009 10.5668C41.4009 11.2012 41.4862 11.767 41.6566 12.2642C41.8318 12.7614 42.0898 13.1544 42.4308 13.4432C42.7764 13.7273 43.2025 13.8693 43.7092 13.8693ZM51.0316 16V5.09091H53.9648V6.99432H54.0785C54.2773 6.31723 54.6112 5.80587 55.0799 5.46023C55.5487 5.10985 56.0884 4.93466 56.6992 4.93466C56.8507 4.93466 57.0141 4.94413 57.1893 4.96307C57.3645 4.98201 57.5183 5.00805 57.6509 5.04119V7.72585C57.5089 7.68324 57.3124 7.64536 57.0614 7.61222C56.8105 7.57907 56.5808 7.5625 56.3725 7.5625C55.9274 7.5625 55.5297 7.65956 55.1793 7.85369C54.8337 8.04309 54.5591 8.30824 54.3555 8.64915C54.1566 8.99006 54.0572 9.38305 54.0572 9.82812V16H51.0316ZM65.5646 5.09091V7.36364H58.995V5.09091H65.5646ZM60.4865 2.47727H63.5121V12.6477C63.5121 12.9271 63.5547 13.1449 63.6399 13.3011C63.7251 13.4527 63.8435 13.5592 63.995 13.6207C64.1513 13.6823 64.3312 13.7131 64.5348 13.7131C64.6768 13.7131 64.8189 13.7012 64.9609 13.6776C65.103 13.6491 65.2119 13.6278 65.2876 13.6136L65.7635 15.8651C65.612 15.9124 65.3989 15.9669 65.1243 16.0284C64.8497 16.0947 64.5159 16.1349 64.1229 16.1491C63.3937 16.1776 62.7545 16.0805 62.2053 15.858C61.6607 15.6354 61.237 15.2898 60.9339 14.821C60.6309 14.3523 60.4818 13.7604 60.4865 13.0455V2.47727ZM67.5355 16V5.09091H70.5611V16H67.5355ZM69.0554 3.68466C68.6056 3.68466 68.2197 3.53551 67.8977 3.23722C67.5805 2.93419 67.4219 2.57197 67.4219 2.15057C67.4219 1.7339 67.5805 1.37642 67.8977 1.07812C68.2197 0.775094 68.6056 0.623579 69.0554 0.623579C69.5052 0.623579 69.8887 0.775094 70.206 1.07812C70.5279 1.37642 70.6889 1.7339 70.6889 2.15057C70.6889 2.57197 70.5279 2.93419 70.206 3.23722C69.8887 3.53551 69.5052 3.68466 69.0554 3.68466ZM76.0103 9.69318V16H72.9847V5.09091H75.8683V7.01562H75.9961C76.2376 6.38116 76.6424 5.87926 77.2106 5.50994C77.7788 5.13589 78.4677 4.94886 79.2773 4.94886C80.0349 4.94886 80.6954 5.11458 81.2589 5.44602C81.8223 5.77746 82.2603 6.25095 82.5728 6.86648C82.8853 7.47727 83.0415 8.20644 83.0415 9.05398V16H80.016V9.59375C80.0207 8.92614 79.8503 8.4053 79.5046 8.03125C79.159 7.65246 78.6831 7.46307 78.0771 7.46307C77.6699 7.46307 77.31 7.55066 76.9975 7.72585C76.6897 7.90104 76.4483 8.15672 76.2731 8.4929C76.1026 8.82434 76.015 9.22443 76.0103 9.69318ZM90.3409 20.3182C89.3608 20.3182 88.5204 20.1832 87.8196 19.9134C87.1236 19.6482 86.5696 19.286 86.1577 18.8267C85.7457 18.3674 85.4782 17.8513 85.3551 17.2784L88.1534 16.902C88.2386 17.1198 88.3736 17.3234 88.5582 17.5128C88.7429 17.7022 88.9867 17.8537 89.2898 17.9673C89.5975 18.0857 89.9716 18.1449 90.4119 18.1449C91.0701 18.1449 91.6122 17.9839 92.0384 17.6619C92.4692 17.3447 92.6847 16.812 92.6847 16.0639V14.0682H92.5568C92.4242 14.3712 92.2254 14.6577 91.9602 14.9276C91.6951 15.1974 91.3542 15.4176 90.9375 15.5881C90.5208 15.7585 90.0237 15.8438 89.446 15.8438C88.6269 15.8438 87.8812 15.6544 87.2088 15.2756C86.5412 14.892 86.0085 14.3073 85.6108 13.5213C85.2178 12.7306 85.0213 11.7315 85.0213 10.5241C85.0213 9.28835 85.2225 8.25616 85.625 7.42756C86.0275 6.59896 86.5625 5.97869 87.2301 5.56676C87.9025 5.15483 88.6387 4.94886 89.4389 4.94886C90.0497 4.94886 90.5611 5.05303 90.973 5.26136C91.3849 5.46496 91.7164 5.72064 91.9673 6.02841C92.223 6.33144 92.4195 6.62973 92.5568 6.9233H92.6705V5.09091H95.6747V16.1065C95.6747 17.0346 95.4474 17.8111 94.9929 18.4361C94.5384 19.0611 93.9086 19.5298 93.1037 19.8423C92.3035 20.1596 91.3826 20.3182 90.3409 20.3182ZM90.4048 13.571C90.8925 13.571 91.3045 13.4503 91.6406 13.2088C91.9815 12.9626 92.242 12.6122 92.4219 12.1577C92.6065 11.6984 92.6989 11.1491 92.6989 10.5099C92.6989 9.87074 92.6089 9.31676 92.429 8.84801C92.2491 8.37453 91.9886 8.00758 91.6477 7.74716C91.3068 7.48674 90.8925 7.35653 90.4048 7.35653C89.9077 7.35653 89.4886 7.49148 89.1477 7.76136C88.8068 8.02651 88.5488 8.39583 88.3736 8.86932C88.1984 9.3428 88.1108 9.88968 88.1108 10.5099C88.1108 11.1397 88.1984 11.6842 88.3736 12.1435C88.5535 12.598 88.8116 12.9508 89.1477 13.2017C89.4886 13.4479 89.9077 13.571 90.4048 13.571ZM7.08807 25.4545H10.1278V35.5966C10.1278 36.5341 9.91714 37.3485 9.49574 38.0398C9.07907 38.7311 8.49905 39.2637 7.75568 39.6378C7.01231 40.0118 6.1482 40.1989 5.16335 40.1989C4.28741 40.1989 3.49195 40.045 2.77699 39.7372C2.06676 39.4247 1.50331 38.9512 1.08665 38.3168C0.669981 37.6776 0.464015 36.875 0.46875 35.9091H3.52983C3.5393 36.2926 3.61742 36.6217 3.7642 36.8963C3.91572 37.1662 4.12169 37.3745 4.3821 37.5213C4.64725 37.6634 4.95975 37.7344 5.3196 37.7344C5.69839 37.7344 6.01799 37.6539 6.27841 37.4929C6.54356 37.3272 6.74479 37.0857 6.8821 36.7685C7.01941 36.4512 7.08807 36.0606 7.08807 35.5966V25.4545ZM17.5426 40.2131C16.4394 40.2131 15.4853 39.9787 14.6804 39.5099C13.8802 39.0365 13.2623 38.3783 12.8267 37.5355C12.3911 36.688 12.1733 35.7055 12.1733 34.5881C12.1733 33.4612 12.3911 32.4763 12.8267 31.6335C13.2623 30.786 13.8802 30.1278 14.6804 29.6591C15.4853 29.1856 16.4394 28.9489 17.5426 28.9489C18.6458 28.9489 19.5975 29.1856 20.3977 29.6591C21.2027 30.1278 21.8229 30.786 22.2585 31.6335C22.6941 32.4763 22.9119 33.4612 22.9119 34.5881C22.9119 35.7055 22.6941 36.688 22.2585 37.5355C21.8229 38.3783 21.2027 39.0365 20.3977 39.5099C19.5975 39.9787 18.6458 40.2131 17.5426 40.2131ZM17.5568 37.8693C18.0587 37.8693 18.4777 37.7273 18.8139 37.4432C19.1501 37.1544 19.4034 36.7614 19.5739 36.2642C19.7491 35.767 19.8366 35.2012 19.8366 34.5668C19.8366 33.9323 19.7491 33.3665 19.5739 32.8693C19.4034 32.3722 19.1501 31.9792 18.8139 31.6903C18.4777 31.4015 18.0587 31.2571 17.5568 31.2571C17.0502 31.2571 16.6241 31.4015 16.2784 31.6903C15.9375 31.9792 15.6795 32.3722 15.5043 32.8693C15.3338 33.3665 15.2486 33.9323 15.2486 34.5668C15.2486 35.2012 15.3338 35.767 15.5043 36.2642C15.6795 36.7614 15.9375 37.1544 16.2784 37.4432C16.6241 37.7273 17.0502 37.8693 17.5568 37.8693ZM31.875 35.3551V29.0909H34.9006V40H31.9957V38.0185H31.8821C31.6359 38.6577 31.2263 39.1714 30.6534 39.5597C30.0852 39.9479 29.3916 40.142 28.5724 40.142C27.8433 40.142 27.2017 39.9763 26.6477 39.6449C26.0938 39.3134 25.6605 38.8423 25.348 38.2315C25.0402 37.6207 24.884 36.8892 24.8793 36.0369V29.0909H27.9048V35.4972C27.9096 36.1411 28.0824 36.6501 28.4233 37.0241C28.7642 37.3982 29.2211 37.5852 29.794 37.5852C30.1586 37.5852 30.4995 37.5024 30.8168 37.3366C31.134 37.1662 31.3897 36.9152 31.5838 36.5838C31.7827 36.2524 31.8797 35.8428 31.875 35.3551ZM37.3207 40V29.0909H40.2539V30.9943H40.3675C40.5664 30.3172 40.9002 29.8059 41.369 29.4602C41.8377 29.1098 42.3775 28.9347 42.9883 28.9347C43.1398 28.9347 43.3031 28.9441 43.4783 28.9631C43.6535 28.982 43.8074 29.008 43.94 29.0412V31.7259C43.7979 31.6832 43.6014 31.6454 43.3505 31.6122C43.0996 31.5791 42.8699 31.5625 42.6616 31.5625C42.2165 31.5625 41.8188 31.6596 41.4684 31.8537C41.1228 32.0431 40.8481 32.3082 40.6445 32.6491C40.4457 32.9901 40.3462 33.383 40.3462 33.8281V40H37.3207ZM48.5298 33.6932V40H45.5043V29.0909H48.3878V31.0156H48.5156C48.7571 30.3812 49.1619 29.8793 49.7301 29.5099C50.2983 29.1359 50.9872 28.9489 51.7969 28.9489C52.5545 28.9489 53.215 29.1146 53.7784 29.446C54.3419 29.7775 54.7798 30.2509 55.0923 30.8665C55.4048 31.4773 55.5611 32.2064 55.5611 33.054V40H52.5355V33.5938C52.5402 32.9261 52.3698 32.4053 52.0241 32.0312C51.6785 31.6525 51.2027 31.4631 50.5966 31.4631C50.1894 31.4631 49.8295 31.5507 49.517 31.7259C49.2093 31.901 48.9678 32.1567 48.7926 32.4929C48.6222 32.8243 48.5346 33.2244 48.5298 33.6932ZM61.0565 40.206C60.3604 40.206 59.7402 40.0852 59.1957 39.8438C58.6512 39.5975 58.2203 39.2353 57.9031 38.7571C57.5906 38.2741 57.4343 37.6728 57.4343 36.9531C57.4343 36.3471 57.5456 35.8381 57.7681 35.4261C57.9906 35.0142 58.2937 34.6828 58.6772 34.4318C59.0607 34.1809 59.4963 33.9915 59.984 33.8636C60.4764 33.7358 60.9925 33.6458 61.5323 33.5938C62.1668 33.5275 62.6781 33.4659 63.0664 33.4091C63.4547 33.3475 63.7364 33.2576 63.9116 33.1392C64.0868 33.0208 64.1744 32.8456 64.1744 32.6136V32.571C64.1744 32.1212 64.0323 31.7732 63.7482 31.527C63.4689 31.2808 63.0711 31.1577 62.555 31.1577C62.0105 31.1577 61.5773 31.2784 61.2553 31.5199C60.9334 31.7566 60.7203 32.0549 60.6161 32.4148L57.8178 32.1875C57.9599 31.5246 58.2392 30.9517 58.6559 30.4688C59.0726 29.9811 59.61 29.607 60.2681 29.3466C60.931 29.0814 61.698 28.9489 62.5692 28.9489C63.1753 28.9489 63.7553 29.0199 64.3093 29.1619C64.868 29.304 65.3628 29.5241 65.7937 29.8224C66.2293 30.1207 66.5726 30.5043 66.8235 30.973C67.0745 31.437 67.1999 31.9934 67.1999 32.642V40H64.3306V38.4872H64.2454C64.0702 38.8281 63.8358 39.1288 63.5423 39.3892C63.2487 39.6449 62.896 39.8461 62.484 39.9929C62.0721 40.1349 61.5962 40.206 61.0565 40.206ZM61.9229 38.1179C62.368 38.1179 62.761 38.0303 63.1019 37.8551C63.4428 37.6752 63.7103 37.4337 63.9045 37.1307C64.0986 36.8277 64.1957 36.4844 64.1957 36.1009V34.9432C64.101 35.0047 63.9708 35.0616 63.805 35.1136C63.6441 35.161 63.4618 35.206 63.2582 35.2486C63.0546 35.2865 62.851 35.322 62.6474 35.3551C62.4438 35.3835 62.2591 35.4096 62.0934 35.4332C61.7383 35.4853 61.4281 35.5682 61.163 35.6818C60.8978 35.7955 60.6919 35.9493 60.5451 36.1435C60.3983 36.3329 60.3249 36.5696 60.3249 36.8537C60.3249 37.2656 60.4741 37.5805 60.7724 37.7983C61.0754 38.0114 61.4589 38.1179 61.9229 38.1179ZM72.5728 25.4545V40H69.5472V25.4545H72.5728Z" fill="url(#paint0_linear_5_90)"/>
<defs>
<linearGradient id="paint0_linear_5_90" x1="8.5" y1="-42.5" x2="90.5" y2="40" gradientUnits="userSpaceOnUse">
<stop stop-color="#5200FF"/>
<stop offset="0.997416" stop-color="#AA86F5"/>
</linearGradient>
</defs>
</svg>
