<svg width="27" height="27" viewBox="0 0 27 27" fill="none" xmlns="http://www.w3.org/2000/svg">
<path d="M24.3757 14.3104L25.0356 11.8952C25.8066 9.07625 26.1934 7.66738 25.9037 6.44728C25.674 5.48406 25.1578 4.60919 24.4204 3.93332C23.4872 3.077 22.0473 2.69946 19.1688 1.9444C16.2903 1.18809 14.8504 0.810556 13.6058 1.09433C12.6223 1.31924 11.7289 1.82476 11.0388 2.54695C10.2895 3.32952 9.89889 4.47586 9.31808 6.55854L9.00662 7.68988L8.34667 10.1051C7.57438 12.9241 7.18888 14.3329 7.47865 15.553C7.7083 16.5162 8.2245 17.3911 8.96194 18.067C9.89506 18.9233 11.335 19.3008 14.2135 20.0572C16.8073 20.7372 18.2332 21.111 19.4012 20.9697C19.5288 20.9547 19.6539 20.9322 19.7764 20.9047C20.7597 20.6805 21.653 20.1759 22.3435 19.4546C23.2179 18.5395 23.6034 17.1294 24.3757 14.3104Z" stroke="#00C159" stroke-width="1.5"/>
<path d="M19.4013 20.9698C19.1345 21.7703 18.6656 22.4918 18.038 23.0675C17.1049 23.9238 15.665 24.3014 12.7865 25.0564C9.908 25.8115 8.46811 26.1903 7.22352 25.9052C6.24012 25.6807 5.34679 25.1756 4.65648 24.4539C3.78208 23.54 3.3953 22.1299 2.62429 19.3109L1.96434 16.8957C1.19206 14.0768 0.806556 12.6666 1.09632 11.4478C1.32598 10.4846 1.84218 9.60969 2.57962 8.93382C3.51274 8.0775 4.95263 7.69997 7.83114 6.94366C8.37493 6.80114 8.86893 6.67113 9.31826 6.55737" stroke="#00C159" stroke-width="1.5"/>
<path d="M13.4811 11.0015L19.6466 12.6191M12.4893 14.6243L16.1886 15.5943" stroke="#00C159" stroke-width="1.5" stroke-linecap="round"/>
</svg>
