<svg width="25" height="20" viewBox="0 0 25 20" fill="none" xmlns="http://www.w3.org/2000/svg">
<path fill-rule="evenodd" clip-rule="evenodd" d="M2.34375 1.5C2.34375 1.10218 2.22028 0.720644 2.00052 0.43934C1.78075 0.158035 1.48268 0 1.17188 0C0.861074 0 0.563004 0.158035 0.343235 0.43934C0.123466 0.720644 0 1.10218 0 1.5V18.5C0 18.8978 0.123466 19.2794 0.343235 19.5607C0.563004 19.842 0.861074 20 1.17188 20C1.48268 20 1.78075 19.842 2.00052 19.5607C2.22028 19.2794 2.34375 18.8978 2.34375 18.5V1.5ZM12.2516 2.44C12.471 2.72125 12.5943 3.1025 12.5943 3.5C12.5943 3.8975 12.471 4.27875 12.2516 4.56L9.17344 8.5H23.8281C24.1389 8.5 24.437 8.65804 24.6568 8.93934C24.8765 9.22064 25 9.60218 25 10C25 10.3978 24.8765 10.7794 24.6568 11.0607C24.437 11.342 24.1389 11.5 23.8281 11.5H9.17344L12.2516 15.44C12.3667 15.5773 12.459 15.7429 12.5231 15.9269C12.5871 16.1109 12.6216 16.3096 12.6244 16.511C12.6271 16.7124 12.5982 16.9124 12.5393 17.0992C12.4803 17.286 12.3926 17.4556 12.2813 17.5981C12.17 17.7405 12.0375 17.8528 11.8916 17.9282C11.7456 18.0037 11.5893 18.0407 11.432 18.0372C11.2746 18.0336 11.1195 17.9895 10.9757 17.9076C10.832 17.8256 10.7026 17.7074 10.5953 17.56L5.51719 11.06L4.6875 10L5.51562 8.94L10.5937 2.44C10.7026 2.30061 10.8318 2.19003 10.974 2.11459C11.1163 2.03915 11.2687 2.00032 11.4227 2.00032C11.5766 2.00032 11.7291 2.03915 11.8713 2.11459C12.0135 2.19003 12.1427 2.30061 12.2516 2.44Z" fill="#BCBCBC"/>
</svg>
