<svg width="25" height="25" viewBox="0 0 25 25" fill="none" xmlns="http://www.w3.org/2000/svg">
<path d="M22.5 22.2222V5.55556H2.5V22.2222H22.5ZM22.5 0C23.163 0 23.7989 0.292658 24.2678 0.813592C24.7366 1.33453 25 2.04107 25 2.77778V22.2222C25 22.9589 24.7366 23.6655 24.2678 24.1864C23.7989 24.7073 23.163 25 22.5 25H2.5C1.83696 25 1.20107 24.7073 0.732233 24.1864C0.263392 23.6655 0 22.9589 0 22.2222V2.77778C0 2.04107 0.263392 1.33453 0.732233 0.813592C1.20107 0.292658 1.83696 0 2.5 0H22.5ZM13.75 19.4444V16.6667H20V19.4444H13.75ZM9.475 13.8889L4.4625 8.33333H8L12.125 12.9167C12.6125 13.4583 12.6125 14.3472 12.125 14.8889L8.025 19.4444H4.4875L9.475 13.8889Z" fill="black"/>
</svg>
