<svg width="25" height="20" viewBox="0 0 25 20" fill="none" xmlns="http://www.w3.org/2000/svg">
<path fill-rule="evenodd" clip-rule="evenodd" d="M22.6562 1.5C22.6562 1.10218 22.7797 0.720644 22.9995 0.43934C23.2193 0.158035 23.5173 0 23.8281 0C24.1389 0 24.437 0.158035 24.6568 0.43934C24.8765 0.720644 25 1.10218 25 1.5V18.5C25 18.8978 24.8765 19.2794 24.6568 19.5607C24.437 19.842 24.1389 20 23.8281 20C23.5173 20 23.2193 19.842 22.9995 19.5607C22.7797 19.2794 22.6562 18.8978 22.6562 18.5V1.5ZM12.7484 2.44C12.529 2.72125 12.4057 3.1025 12.4057 3.5C12.4057 3.8975 12.529 4.27875 12.7484 4.56L15.8266 8.5H1.17188C0.861074 8.5 0.563003 8.65804 0.343234 8.93934C0.123465 9.22064 0 9.60218 0 10C0 10.3978 0.123465 10.7794 0.343234 11.0607C0.563003 11.342 0.861074 11.5 1.17188 11.5H15.8266L12.7484 15.44C12.6333 15.5773 12.541 15.7429 12.4769 15.9269C12.4129 16.1109 12.3784 16.3096 12.3756 16.511C12.3729 16.7124 12.4018 16.9124 12.4607 17.0992C12.5197 17.286 12.6074 17.4556 12.7187 17.5981C12.83 17.7405 12.9625 17.8528 13.1084 17.9282C13.2544 18.0037 13.4107 18.0407 13.568 18.0372C13.7254 18.0336 13.8805 17.9895 14.0243 17.9076C14.168 17.8256 14.2974 17.7074 14.4047 17.56L19.4828 11.06L20.3125 10L19.4844 8.94L14.4063 2.44C14.2974 2.30061 14.1682 2.19003 14.026 2.11459C13.8837 2.03915 13.7313 2.00032 13.5773 2.00032C13.4234 2.00032 13.2709 2.03915 13.1287 2.11459C12.9865 2.19003 12.8573 2.30061 12.7484 2.44Z" fill="black"/>
</svg>
