<svg width="25" height="20" viewBox="0 0 25 20" fill="none" xmlns="http://www.w3.org/2000/svg">
<path d="M24.0385 0H0.961538C0.706523 0 0.461951 0.105357 0.281628 0.292893C0.101305 0.48043 0 0.734784 0 1V18C0 18.5304 0.202609 19.0391 0.563256 19.4142C0.923903 19.7893 1.41305 20 1.92308 20H23.0769C23.587 20 24.0761 19.7893 24.4367 19.4142C24.7974 19.0391 25 18.5304 25 18V1C25 0.734784 24.8987 0.48043 24.7184 0.292893C24.538 0.105357 24.2935 0 24.0385 0ZM1.92308 8H6.73077V12H1.92308V8ZM8.65385 8H23.0769V12H8.65385V8ZM23.0769 2V6H1.92308V2H23.0769ZM1.92308 14H6.73077V18H1.92308V14ZM23.0769 18H8.65385V14H23.0769V18Z" fill="#23A220"/>
</svg>
