<svg width="22" height="22" viewBox="0 0 22 22" fill="none" xmlns="http://www.w3.org/2000/svg">
<path d="M4.52002 10.9994C4.52002 10.7417 4.62256 10.4945 4.8051 10.3123C4.98763 10.1301 5.23519 10.0277 5.49333 10.0277H10.0264V5.50216C10.0264 5.24444 10.1289 4.99729 10.3115 4.81506C10.494 4.63283 10.7415 4.53046 10.9997 4.53046C11.2578 4.53046 11.5054 4.63283 11.6879 4.81506C11.8705 4.99729 11.973 5.24444 11.973 5.50216V10.0277H16.506C16.7642 10.0277 17.0117 10.1301 17.1943 10.3123C17.3768 10.4945 17.4794 10.7417 17.4794 10.9994C17.4794 11.2571 17.3768 11.5042 17.1943 11.6865C17.0117 11.8687 16.7642 11.9711 16.506 11.9711H11.973V16.4966C11.973 16.7543 11.8705 17.0015 11.6879 17.1837C11.5054 17.3659 11.2578 17.4683 10.9997 17.4683C10.7415 17.4683 10.494 17.3659 10.3115 17.1837C10.1289 17.0015 10.0264 16.7543 10.0264 16.4966V11.9711H5.49333C5.23519 11.9711 4.98763 11.8687 4.8051 11.6865C4.62256 11.5042 4.52002 11.2571 4.52002 10.9994Z" fill="#989898"/>
<path fill-rule="evenodd" clip-rule="evenodd" d="M4.92226 0.335277C8.96146 -0.111759 13.0378 -0.111759 17.077 0.335277C19.448 0.599579 21.3622 2.46394 21.6399 4.84396C22.12 8.93416 22.12 13.0658 21.6399 17.156C21.3609 19.536 19.4467 21.3991 17.077 21.6647C13.0378 22.1118 8.96146 22.1118 4.92226 21.6647C2.55127 21.3991 0.637087 19.536 0.359369 17.156C-0.119789 13.0659 -0.119789 8.93404 0.359369 4.84396C0.637087 2.46394 2.55257 0.599579 4.92226 0.335277ZM16.8616 2.26572C12.9655 1.83459 9.03371 1.83459 5.13768 2.26572C4.41645 2.3456 3.74325 2.66589 3.22685 3.17486C2.71044 3.68383 2.38099 4.35174 2.29172 5.07069C1.83017 9.01056 1.83017 12.9907 2.29172 16.9306C2.38126 17.6493 2.71084 18.3169 3.22722 18.8256C3.7436 19.3343 4.41664 19.6544 5.13768 19.7343C9.00109 20.1644 12.9982 20.1644 16.8616 19.7343C17.5824 19.6542 18.2551 19.3339 18.7712 18.8253C19.2874 18.3166 19.6167 17.6491 19.7062 16.9306C20.1678 12.9907 20.1678 9.01056 19.7062 5.07069C19.6165 4.3524 19.287 3.68524 18.7709 3.17681C18.2548 2.66839 17.5822 2.34835 16.8616 2.26831" fill="#989898"/>
</svg>
