<svg width="171" height="48" viewBox="0 0 171 48" fill="none" xmlns="http://www.w3.org/2000/svg">
<path d="M0 12V7.2H4.88889V4.8C4.88889 3.52696 5.40397 2.30606 6.32081 1.40589C7.23766 0.505713 8.48116 0 9.77778 0H24.4444V16.8L30.5556 13.2L36.6667 16.8V0H39.1111C41.6778 0 44 2.28 44 4.8V43.2C44 45.72 41.6778 48 39.1111 48H9.77778C7.21111 48 4.88889 45.72 4.88889 43.2V40.8H0V36H4.88889V26.4H0V21.6H4.88889V12H0ZM9.77778 21.6H4.88889V26.4H9.77778V21.6ZM9.77778 12V7.2H4.88889V12H9.77778ZM9.77778 40.8V36H4.88889V40.8H9.77778Z" fill="#5200FF"/>
<path d="M70.2642 19V4.45455H76.0028C77.1013 4.45455 78.0388 4.65104 78.8153 5.04403C79.5966 5.43229 80.1908 5.9839 80.598 6.69886C81.0099 7.40909 81.2159 8.24479 81.2159 9.20597C81.2159 10.1719 81.0076 11.0028 80.5909 11.6989C80.1742 12.3902 79.5705 12.9205 78.7798 13.2898C77.9938 13.6591 77.0421 13.8438 75.9247 13.8438H72.0824V11.3722H75.4276C76.0147 11.3722 76.5024 11.2917 76.8906 11.1307C77.2789 10.9697 77.5677 10.7282 77.7571 10.4062C77.9512 10.0843 78.0483 9.68419 78.0483 9.20597C78.0483 8.72301 77.9512 8.31581 77.7571 7.98438C77.5677 7.65294 77.2765 7.40199 76.8835 7.23153C76.4953 7.05634 76.0052 6.96875 75.4134 6.96875H73.3395V19H70.2642ZM78.1193 12.3807L81.7344 19H78.3395L74.8026 12.3807H78.1193ZM88.1282 19.2131C87.006 19.2131 86.0401 18.9858 85.2305 18.5312C84.4255 18.072 83.8053 17.4233 83.3697 16.5852C82.9341 15.7424 82.7163 14.7457 82.7163 13.5952C82.7163 12.473 82.9341 11.4882 83.3697 10.6406C83.8053 9.79309 84.4184 9.13258 85.2092 8.65909C86.0046 8.18561 86.9374 7.94886 88.0075 7.94886C88.7272 7.94886 89.3971 8.06487 90.0174 8.29688C90.6424 8.52415 91.1869 8.86742 91.6509 9.3267C92.1197 9.78598 92.4843 10.3636 92.7447 11.0597C93.0051 11.7509 93.1353 12.5606 93.1353 13.4886V14.3196H83.9237V12.4446H90.2873C90.2873 12.009 90.1926 11.6231 90.0032 11.2869C89.8138 10.9508 89.551 10.688 89.2148 10.4986C88.8834 10.3045 88.4975 10.2074 88.0572 10.2074C87.5979 10.2074 87.1907 10.3139 86.8356 10.527C86.4852 10.7353 86.2106 11.017 86.0117 11.3722C85.8129 11.7225 85.7111 12.1132 85.7063 12.544V14.3267C85.7063 14.8665 85.8058 15.3329 86.0046 15.7259C86.2082 16.1188 86.4947 16.4219 86.864 16.6349C87.2333 16.848 87.6713 16.9545 88.1779 16.9545C88.5141 16.9545 88.8219 16.9072 89.1012 16.8125C89.3806 16.7178 89.6197 16.5758 89.8185 16.3864C90.0174 16.197 90.1689 15.965 90.2731 15.6903L93.0714 15.875C92.9293 16.5473 92.6381 17.1345 92.1978 17.6364C91.7622 18.1335 91.1987 18.5218 90.5075 18.8011C89.8209 19.0758 89.0278 19.2131 88.1282 19.2131ZM95.1097 23.0909V8.09091H98.0927V9.9233H98.2276C98.3602 9.62973 98.552 9.33144 98.8029 9.02841C99.0586 8.72064 99.39 8.46496 99.7972 8.26136C100.209 8.05303 100.721 7.94886 101.331 7.94886C102.127 7.94886 102.861 8.1572 103.533 8.57386C104.205 8.9858 104.743 9.60843 105.145 10.4418C105.548 11.2704 105.749 12.3097 105.749 13.5597C105.749 14.7765 105.552 15.804 105.159 16.642C104.771 17.4754 104.241 18.1075 103.569 18.5384C102.901 18.9645 102.153 19.1776 101.324 19.1776C100.737 19.1776 100.238 19.0805 99.8256 18.8864C99.4184 18.6922 99.0846 18.4484 98.8242 18.1548C98.5638 17.8565 98.3649 17.5559 98.2276 17.2528H98.1353V23.0909H95.1097ZM98.0714 13.5455C98.0714 14.1941 98.1613 14.7599 98.3413 15.2429C98.5212 15.7259 98.7816 16.1023 99.1225 16.3722C99.4634 16.6373 99.8777 16.7699 100.365 16.7699C100.858 16.7699 101.275 16.6349 101.615 16.3651C101.956 16.0904 102.214 15.7116 102.39 15.2287C102.569 14.741 102.659 14.1799 102.659 13.5455C102.659 12.9157 102.572 12.3617 102.397 11.8835C102.221 11.4053 101.963 11.0312 101.623 10.7614C101.282 10.4915 100.863 10.3565 100.365 10.3565C99.873 10.3565 99.4563 10.4867 99.1154 10.7472C98.7792 11.0076 98.5212 11.3769 98.3413 11.8551C98.1613 12.3333 98.0714 12.8968 98.0714 13.5455ZM112.695 19.2131C111.592 19.2131 110.638 18.9787 109.833 18.5099C109.033 18.0365 108.415 17.3783 107.979 16.5355C107.543 15.688 107.326 14.7055 107.326 13.5881C107.326 12.4612 107.543 11.4763 107.979 10.6335C108.415 9.78598 109.033 9.12784 109.833 8.65909C110.638 8.18561 111.592 7.94886 112.695 7.94886C113.798 7.94886 114.75 8.18561 115.55 8.65909C116.355 9.12784 116.975 9.78598 117.411 10.6335C117.846 11.4763 118.064 12.4612 118.064 13.5881C118.064 14.7055 117.846 15.688 117.411 16.5355C116.975 17.3783 116.355 18.0365 115.55 18.5099C114.75 18.9787 113.798 19.2131 112.695 19.2131ZM112.709 16.8693C113.211 16.8693 113.63 16.7273 113.966 16.4432C114.302 16.1544 114.556 15.7614 114.726 15.2642C114.901 14.767 114.989 14.2012 114.989 13.5668C114.989 12.9323 114.901 12.3665 114.726 11.8693C114.556 11.3722 114.302 10.9792 113.966 10.6903C113.63 10.4015 113.211 10.2571 112.709 10.2571C112.203 10.2571 111.776 10.4015 111.431 10.6903C111.09 10.9792 110.832 11.3722 110.657 11.8693C110.486 12.3665 110.401 12.9323 110.401 13.5668C110.401 14.2012 110.486 14.767 110.657 15.2642C110.832 15.7614 111.09 16.1544 111.431 16.4432C111.776 16.7273 112.203 16.8693 112.709 16.8693ZM120.032 19V8.09091H122.965V9.99432H123.078C123.277 9.31723 123.611 8.80587 124.08 8.46023C124.549 8.10985 125.088 7.93466 125.699 7.93466C125.851 7.93466 126.014 7.94413 126.189 7.96307C126.364 7.98201 126.518 8.00805 126.651 8.04119V10.7259C126.509 10.6832 126.312 10.6454 126.061 10.6122C125.81 10.5791 125.581 10.5625 125.373 10.5625C124.927 10.5625 124.53 10.6596 124.179 10.8537C123.834 11.0431 123.559 11.3082 123.355 11.6491C123.157 11.9901 123.057 12.383 123.057 12.8281V19H120.032ZM134.565 8.09091V10.3636H127.995V8.09091H134.565ZM129.487 5.47727H132.512V15.6477C132.512 15.9271 132.555 16.1449 132.64 16.3011C132.725 16.4527 132.844 16.5592 132.995 16.6207C133.151 16.6823 133.331 16.7131 133.535 16.7131C133.677 16.7131 133.819 16.7012 133.961 16.6776C134.103 16.6491 134.212 16.6278 134.288 16.6136L134.763 18.8651C134.612 18.9124 134.399 18.9669 134.124 19.0284C133.85 19.0947 133.516 19.1349 133.123 19.1491C132.394 19.1776 131.754 19.0805 131.205 18.858C130.661 18.6354 130.237 18.2898 129.934 17.821C129.631 17.3523 129.482 16.7604 129.487 16.0455V5.47727ZM136.536 19V8.09091H139.561V19H136.536ZM138.055 6.68466C137.606 6.68466 137.22 6.53551 136.898 6.23722C136.58 5.93419 136.422 5.57197 136.422 5.15057C136.422 4.7339 136.58 4.37642 136.898 4.07812C137.22 3.77509 137.606 3.62358 138.055 3.62358C138.505 3.62358 138.889 3.77509 139.206 4.07812C139.528 4.37642 139.689 4.7339 139.689 5.15057C139.689 5.57197 139.528 5.93419 139.206 6.23722C138.889 6.53551 138.505 6.68466 138.055 6.68466ZM145.01 12.6932V19H141.985V8.09091H144.868V10.0156H144.996C145.238 9.38116 145.642 8.87926 146.211 8.50994C146.779 8.13589 147.468 7.94886 148.277 7.94886C149.035 7.94886 149.695 8.11458 150.259 8.44602C150.822 8.77746 151.26 9.25095 151.573 9.86648C151.885 10.4773 152.042 11.2064 152.042 12.054V19H149.016V12.5938C149.021 11.9261 148.85 11.4053 148.505 11.0312C148.159 10.6525 147.683 10.4631 147.077 10.4631C146.67 10.4631 146.31 10.5507 145.998 10.7259C145.69 10.901 145.448 11.1567 145.273 11.4929C145.103 11.8243 145.015 12.2244 145.01 12.6932ZM159.341 23.3182C158.361 23.3182 157.52 23.1832 156.82 22.9134C156.124 22.6482 155.57 22.286 155.158 21.8267C154.746 21.3674 154.478 20.8513 154.355 20.2784L157.153 19.902C157.239 20.1198 157.374 20.3234 157.558 20.5128C157.743 20.7022 157.987 20.8537 158.29 20.9673C158.598 21.0857 158.972 21.1449 159.412 21.1449C160.07 21.1449 160.612 20.9839 161.038 20.6619C161.469 20.3447 161.685 19.812 161.685 19.0639V17.0682H161.557C161.424 17.3712 161.225 17.6577 160.96 17.9276C160.695 18.1974 160.354 18.4176 159.938 18.5881C159.521 18.7585 159.024 18.8438 158.446 18.8438C157.627 18.8438 156.881 18.6544 156.209 18.2756C155.541 17.892 155.009 17.3073 154.611 16.5213C154.218 15.7306 154.021 14.7315 154.021 13.5241C154.021 12.2884 154.223 11.2562 154.625 10.4276C155.027 9.59896 155.563 8.97869 156.23 8.56676C156.902 8.15483 157.639 7.94886 158.439 7.94886C159.05 7.94886 159.561 8.05303 159.973 8.26136C160.385 8.46496 160.716 8.72064 160.967 9.02841C161.223 9.33144 161.42 9.62973 161.557 9.9233H161.67V8.09091H164.675V19.1065C164.675 20.0346 164.447 20.8111 163.993 21.4361C163.538 22.0611 162.909 22.5298 162.104 22.8423C161.304 23.1596 160.383 23.3182 159.341 23.3182ZM159.405 16.571C159.893 16.571 160.304 16.4503 160.641 16.2088C160.982 15.9626 161.242 15.6122 161.422 15.1577C161.607 14.6984 161.699 14.1491 161.699 13.5099C161.699 12.8707 161.609 12.3168 161.429 11.848C161.249 11.3745 160.989 11.0076 160.648 10.7472C160.307 10.4867 159.893 10.3565 159.405 10.3565C158.908 10.3565 158.489 10.4915 158.148 10.7614C157.807 11.0265 157.549 11.3958 157.374 11.8693C157.198 12.3428 157.111 12.8897 157.111 13.5099C157.111 14.1397 157.198 14.6842 157.374 15.1435C157.554 15.598 157.812 15.9508 158.148 16.2017C158.489 16.4479 158.908 16.571 159.405 16.571ZM76.0881 28.4545H79.1278V38.5966C79.1278 39.5341 78.9171 40.3485 78.4957 41.0398C78.0791 41.7311 77.4991 42.2637 76.7557 42.6378C76.0123 43.0118 75.1482 43.1989 74.1634 43.1989C73.2874 43.1989 72.492 43.045 71.777 42.7372C71.0668 42.4247 70.5033 41.9512 70.0866 41.3168C69.67 40.6776 69.464 39.875 69.4688 38.9091H72.5298C72.5393 39.2926 72.6174 39.6217 72.7642 39.8963C72.9157 40.1662 73.1217 40.3745 73.3821 40.5213C73.6473 40.6634 73.9598 40.7344 74.3196 40.7344C74.6984 40.7344 75.018 40.6539 75.2784 40.4929C75.5436 40.3272 75.7448 40.0857 75.8821 39.7685C76.0194 39.4512 76.0881 39.0606 76.0881 38.5966V28.4545ZM86.5426 43.2131C85.4394 43.2131 84.4853 42.9787 83.6804 42.5099C82.8802 42.0365 82.2623 41.3783 81.8267 40.5355C81.3911 39.688 81.1733 38.7055 81.1733 37.5881C81.1733 36.4612 81.3911 35.4763 81.8267 34.6335C82.2623 33.786 82.8802 33.1278 83.6804 32.6591C84.4853 32.1856 85.4394 31.9489 86.5426 31.9489C87.6458 31.9489 88.5975 32.1856 89.3977 32.6591C90.2027 33.1278 90.8229 33.786 91.2585 34.6335C91.6941 35.4763 91.9119 36.4612 91.9119 37.5881C91.9119 38.7055 91.6941 39.688 91.2585 40.5355C90.8229 41.3783 90.2027 42.0365 89.3977 42.5099C88.5975 42.9787 87.6458 43.2131 86.5426 43.2131ZM86.5568 40.8693C87.0587 40.8693 87.4777 40.7273 87.8139 40.4432C88.1501 40.1544 88.4034 39.7614 88.5739 39.2642C88.7491 38.767 88.8366 38.2012 88.8366 37.5668C88.8366 36.9323 88.7491 36.3665 88.5739 35.8693C88.4034 35.3722 88.1501 34.9792 87.8139 34.6903C87.4777 34.4015 87.0587 34.2571 86.5568 34.2571C86.0502 34.2571 85.6241 34.4015 85.2784 34.6903C84.9375 34.9792 84.6795 35.3722 84.5043 35.8693C84.3338 36.3665 84.2486 36.9323 84.2486 37.5668C84.2486 38.2012 84.3338 38.767 84.5043 39.2642C84.6795 39.7614 84.9375 40.1544 85.2784 40.4432C85.6241 40.7273 86.0502 40.8693 86.5568 40.8693ZM100.875 38.3551V32.0909H103.901V43H100.996V41.0185H100.882C100.636 41.6577 100.226 42.1714 99.6534 42.5597C99.0852 42.9479 98.3916 43.142 97.5724 43.142C96.8433 43.142 96.2017 42.9763 95.6477 42.6449C95.0938 42.3134 94.6605 41.8423 94.348 41.2315C94.0402 40.6207 93.884 39.8892 93.8793 39.0369V32.0909H96.9048V38.4972C96.9096 39.1411 97.0824 39.6501 97.4233 40.0241C97.7642 40.3982 98.2211 40.5852 98.794 40.5852C99.1586 40.5852 99.4995 40.5024 99.8168 40.3366C100.134 40.1662 100.39 39.9152 100.584 39.5838C100.783 39.2524 100.88 38.8428 100.875 38.3551ZM106.321 43V32.0909H109.254V33.9943H109.368C109.566 33.3172 109.9 32.8059 110.369 32.4602C110.838 32.1098 111.377 31.9347 111.988 31.9347C112.14 31.9347 112.303 31.9441 112.478 31.9631C112.654 31.982 112.807 32.008 112.94 32.0412V34.7259C112.798 34.6832 112.601 34.6454 112.35 34.6122C112.1 34.5791 111.87 34.5625 111.662 34.5625C111.217 34.5625 110.819 34.6596 110.468 34.8537C110.123 35.0431 109.848 35.3082 109.645 35.6491C109.446 35.9901 109.346 36.383 109.346 36.8281V43H106.321ZM117.53 36.6932V43H114.504V32.0909H117.388V34.0156H117.516C117.757 33.3812 118.162 32.8793 118.73 32.5099C119.298 32.1359 119.987 31.9489 120.797 31.9489C121.554 31.9489 122.215 32.1146 122.778 32.446C123.342 32.7775 123.78 33.2509 124.092 33.8665C124.405 34.4773 124.561 35.2064 124.561 36.054V43H121.536V36.5938C121.54 35.9261 121.37 35.4053 121.024 35.0312C120.679 34.6525 120.203 34.4631 119.597 34.4631C119.189 34.4631 118.83 34.5507 118.517 34.7259C118.209 34.901 117.968 35.1567 117.793 35.4929C117.622 35.8243 117.535 36.2244 117.53 36.6932ZM130.056 43.206C129.36 43.206 128.74 43.0852 128.196 42.8438C127.651 42.5975 127.22 42.2353 126.903 41.7571C126.591 41.2741 126.434 40.6728 126.434 39.9531C126.434 39.3471 126.546 38.8381 126.768 38.4261C126.991 38.0142 127.294 37.6828 127.677 37.4318C128.061 37.1809 128.496 36.9915 128.984 36.8636C129.476 36.7358 129.993 36.6458 130.532 36.5938C131.167 36.5275 131.678 36.4659 132.066 36.4091C132.455 36.3475 132.736 36.2576 132.912 36.1392C133.087 36.0208 133.174 35.8456 133.174 35.6136V35.571C133.174 35.1212 133.032 34.7732 132.748 34.527C132.469 34.2808 132.071 34.1577 131.555 34.1577C131.011 34.1577 130.577 34.2784 130.255 34.5199C129.933 34.7566 129.72 35.0549 129.616 35.4148L126.818 35.1875C126.96 34.5246 127.239 33.9517 127.656 33.4688C128.073 32.9811 128.61 32.607 129.268 32.3466C129.931 32.0814 130.698 31.9489 131.569 31.9489C132.175 31.9489 132.755 32.0199 133.309 32.1619C133.868 32.304 134.363 32.5241 134.794 32.8224C135.229 33.1207 135.573 33.5043 135.824 33.973C136.074 34.437 136.2 34.9934 136.2 35.642V43H133.331V41.4872H133.245C133.07 41.8281 132.836 42.1288 132.542 42.3892C132.249 42.6449 131.896 42.8461 131.484 42.9929C131.072 43.1349 130.596 43.206 130.056 43.206ZM130.923 41.1179C131.368 41.1179 131.761 41.0303 132.102 40.8551C132.443 40.6752 132.71 40.4337 132.904 40.1307C133.099 39.8277 133.196 39.4844 133.196 39.1009V37.9432C133.101 38.0047 132.971 38.0616 132.805 38.1136C132.644 38.161 132.462 38.206 132.258 38.2486C132.055 38.2865 131.851 38.322 131.647 38.3551C131.444 38.3835 131.259 38.4096 131.093 38.4332C130.738 38.4853 130.428 38.5682 130.163 38.6818C129.898 38.7955 129.692 38.9493 129.545 39.1435C129.398 39.3329 129.325 39.5696 129.325 39.8537C129.325 40.2656 129.474 40.5805 129.772 40.7983C130.075 41.0114 130.459 41.1179 130.923 41.1179ZM141.573 28.4545V43H138.547V28.4545H141.573Z" fill="url(#paint0_linear_5_173)"/>
<defs>
<linearGradient id="paint0_linear_5_173" x1="77.5" y1="-39.5" x2="159.5" y2="43" gradientUnits="userSpaceOnUse">
<stop stop-color="#5200FF"/>
<stop offset="0.997416" stop-color="#AA86F5"/>
</linearGradient>
</defs>
</svg>
