<svg width="22" height="22" viewBox="0 0 22 22" fill="none" xmlns="http://www.w3.org/2000/svg">
<path d="M10.9998 14C12.7572 14 14.1818 12.6569 14.1818 11C14.1818 9.34315 12.7572 8 10.9998 8C9.24248 8 7.81787 9.34315 7.81787 11C7.81787 12.6569 9.24248 14 10.9998 14Z" stroke="#989898" stroke-width="1.875"/>
<path d="M12.872 1.152C12.4828 1 11.9885 1 11 1C10.0115 1 9.51721 1 9.12795 1.152C8.87041 1.25251 8.6364 1.3999 8.4393 1.58572C8.2422 1.77155 8.08588 1.99218 7.97927 2.235C7.88169 2.458 7.84245 2.719 7.8276 3.098C7.82099 3.37199 7.74063 3.6399 7.59406 3.87657C7.44749 4.11324 7.23952 4.31091 6.98968 4.451C6.73608 4.58504 6.4505 4.6561 6.15976 4.6575C5.86903 4.6589 5.58269 4.59059 5.32765 4.459C4.97127 4.281 4.71353 4.183 4.45791 4.151C3.90035 4.08187 3.33649 4.22431 2.89027 4.547C2.55723 4.79 2.30904 5.193 1.81478 6C1.32051 6.807 1.07232 7.21 1.01823 7.605C0.981778 7.86545 1.00011 8.13012 1.07218 8.38389C1.14425 8.63767 1.26864 8.87556 1.43824 9.084C1.59522 9.276 1.81478 9.437 2.15524 9.639C2.65693 9.936 2.97937 10.442 2.97937 11C2.97937 11.558 2.65693 12.064 2.15524 12.36C1.81478 12.563 1.59416 12.724 1.43824 12.916C1.26864 13.1244 1.14425 13.3623 1.07218 13.6161C1.00011 13.8699 0.981778 14.1345 1.01823 14.395C1.07338 14.789 1.32051 15.193 1.81371 16C2.30904 16.807 2.55617 17.21 2.89027 17.453C3.11135 17.6129 3.36368 17.7302 3.63284 17.7981C3.902 17.8661 4.18273 17.8834 4.45897 17.849C4.71353 17.817 4.97127 17.719 5.32765 17.541C5.58269 17.4094 5.86903 17.3411 6.15976 17.3425C6.4505 17.3439 6.73608 17.415 6.98968 17.549C7.50198 17.829 7.80638 18.344 7.8276 18.902C7.84245 19.282 7.88063 19.542 7.97927 19.765C8.08588 20.0078 8.2422 20.2284 8.4393 20.4143C8.6364 20.6001 8.87041 20.7475 9.12795 20.848C9.51721 21 10.0115 21 11 21C11.9885 21 12.4828 21 12.872 20.848C13.1296 20.7475 13.3636 20.6001 13.5607 20.4143C13.7578 20.2284 13.9141 20.0078 14.0207 19.765C14.1183 19.542 14.1576 19.282 14.1724 18.902C14.1936 18.344 14.498 17.828 15.0103 17.549C15.2639 17.415 15.5495 17.3439 15.8402 17.3425C16.131 17.3411 16.4173 17.4094 16.6724 17.541C17.0287 17.719 17.2865 17.817 17.541 17.849C17.8173 17.8834 18.098 17.8661 18.3672 17.7981C18.6363 17.7302 18.8886 17.6129 19.1097 17.453C19.4438 17.211 19.691 16.807 20.1852 16C20.6795 15.193 20.9277 14.79 20.9818 14.395C21.0182 14.1345 20.9999 13.8699 20.9278 13.6161C20.8558 13.3623 20.7314 13.1244 20.5618 12.916C20.4048 12.724 20.1852 12.563 19.8448 12.361C19.5963 12.2186 19.3903 12.019 19.2461 11.7809C19.102 11.5428 19.0244 11.2741 19.0206 11C19.0206 10.442 19.3431 9.936 19.8448 9.64C20.1852 9.437 20.4058 9.276 20.5618 9.084C20.7314 8.87556 20.8558 8.63767 20.9278 8.38389C20.9999 8.13012 21.0182 7.86545 20.9818 7.605C20.9266 7.211 20.6795 6.807 20.1863 6C19.691 5.193 19.4438 4.79 19.1097 4.547C18.8886 4.38709 18.6363 4.26981 18.3672 4.20187C18.098 4.13392 17.8173 4.11664 17.541 4.151C17.2865 4.183 17.0287 4.281 16.6713 4.459C16.4164 4.59042 16.1302 4.65862 15.8397 4.65722C15.5492 4.65582 15.2638 4.58486 15.0103 4.451C14.7605 4.31091 14.5525 4.11324 14.4059 3.87657C14.2594 3.6399 14.179 3.37199 14.1724 3.098C14.1576 2.718 14.1194 2.458 14.0207 2.235C13.9141 1.99218 13.7578 1.77155 13.5607 1.58572C13.3636 1.3999 13.1296 1.25251 12.872 1.152Z" stroke="#989898" stroke-width="1.875"/>
</svg>
