<svg width="44" height="48" viewBox="0 0 44 48" fill="none" xmlns="http://www.w3.org/2000/svg">
<path d="M0 12V7.2H4.88889V4.8C4.88889 3.52696 5.40397 2.30606 6.32081 1.40589C7.23766 0.505713 8.48116 0 9.77778 0H24.4444V16.8L30.5556 13.2L36.6667 16.8V0H39.1111C41.6778 0 44 2.28 44 4.8V43.2C44 45.72 41.6778 48 39.1111 48H9.77778C7.21111 48 4.88889 45.72 4.88889 43.2V40.8H0V36H4.88889V26.4H0V21.6H4.88889V12H0ZM9.77778 21.6H4.88889V26.4H9.77778V21.6ZM9.77778 12V7.2H4.88889V12H9.77778ZM9.77778 40.8V36H4.88889V40.8H9.77778Z" fill="#5200FF"/>
</svg>
