<svg width="50" height="50" viewBox="0 0 50 50" fill="none" xmlns="http://www.w3.org/2000/svg">
<path d="M10.2725 24.9985C10.2725 24.4128 10.5055 23.8511 10.9204 23.4369C11.3352 23.0227 11.8979 22.7901 12.4845 22.7901H22.7869V12.5048C22.7869 11.9191 23.02 11.3574 23.4348 10.9432C23.8496 10.5291 24.4123 10.2964 24.999 10.2964C25.5857 10.2964 26.1483 10.5291 26.5631 10.9432C26.978 11.3574 27.2111 11.9191 27.2111 12.5048V22.7901H37.5134C38.1001 22.7901 38.6627 23.0227 39.0776 23.4369C39.4924 23.8511 39.7255 24.4128 39.7255 24.9985C39.7255 25.5842 39.4924 26.1459 39.0776 26.5601C38.6627 26.9742 38.1001 27.2069 37.5134 27.2069H27.2111V37.4922C27.2111 38.0779 26.978 38.6396 26.5631 39.0537C26.1483 39.4679 25.5857 39.7006 24.999 39.7006C24.4123 39.7006 23.8496 39.4679 23.4348 39.0537C23.02 38.6396 22.7869 38.0779 22.7869 37.4922V27.2069H12.4845C11.8979 27.2069 11.3352 26.9742 10.9204 26.5601C10.5055 26.1459 10.2725 25.5842 10.2725 24.9985Z" fill="#656565"/>
<path fill-rule="evenodd" clip-rule="evenodd" d="M11.1869 0.761993C20.367 -0.253997 29.6313 -0.253997 38.8113 0.761993C44.1999 1.36268 48.5504 5.59987 49.1815 11.009C50.2728 20.3049 50.2728 29.6951 49.1815 38.991C48.5474 44.4001 44.197 48.6343 38.8113 49.238C29.6313 50.254 20.367 50.254 11.1869 49.238C5.79834 48.6343 1.44793 44.4001 0.816747 38.991C-0.272249 29.6953 -0.272249 20.3046 0.816747 11.009C1.44793 5.59987 5.80129 1.36268 11.1869 0.761993ZM38.3217 5.14936C29.4671 4.16952 20.5312 4.16952 11.6766 5.14936C10.0374 5.33091 8.50739 6.05885 7.33375 7.21559C6.1601 8.37233 5.41135 9.89031 5.20845 11.5243C4.15948 20.4785 4.15948 29.5244 5.20845 38.4786C5.41196 40.1121 6.16099 41.6294 7.33458 42.7855C8.50817 43.9417 10.0378 44.6692 11.6766 44.8506C20.457 45.8282 29.5413 45.8282 38.3217 44.8506C39.9599 44.6686 41.4889 43.9408 42.6619 42.7847C43.8349 41.6286 44.5835 40.1116 44.7869 38.4786C45.8359 29.5244 45.8359 20.4785 44.7869 11.5243C44.5829 9.89182 43.834 8.37554 42.6611 7.22003C41.4881 6.06452 39.9595 5.33715 38.3217 5.15525V5.14936Z" fill="#656565"/>
</svg>
